<svg width="49" height="40" viewBox="0 0 49 40" fill="none" xmlns="http://www.w3.org/2000/svg">
<path d="M39.7536 9.15794C39.5121 8.82682 39.1264 8.63087 38.7166 8.63087H9.83972C9.78377 8.63087 9.72791 8.63427 9.67411 8.64152L8.48568 5.21571C8.36251 4.8614 8.09127 4.57897 7.74269 4.44174L1.75329 2.08888C1.0932 1.83045 0.348326 2.15468 0.0890849 2.81397C-0.169708 3.47362 0.154432 4.21894 0.814172 4.47818L6.25394 6.61512L12.9123 25.8075C12.6184 25.9099 12.3694 26.1354 12.256 26.4508L10.3308 31.7985C10.2128 32.1264 10.2614 32.4907 10.4622 32.7756C10.6627 33.0606 10.9888 33.2302 11.3371 33.2302H12.3257C11.713 33.912 11.3371 34.8098 11.3371 35.7971C11.3371 37.9203 13.0646 39.6474 15.1874 39.6474C17.3102 39.6474 19.0377 37.9203 19.0377 35.7971C19.0377 34.8098 18.6617 33.912 18.049 33.2302H26.4436C25.8307 33.912 25.4546 34.8098 25.4546 35.7971C25.4546 37.9203 27.1817 39.6474 29.305 39.6474C31.4282 39.6474 33.1553 37.9203 33.1553 35.7971C33.1553 34.8098 32.7793 33.912 32.1668 33.2302H33.3692C33.96 33.2302 34.4387 32.7514 34.4387 32.1607C34.4387 31.5699 33.9599 31.0912 33.3692 31.0912H12.8589L14.0511 27.7794C14.2051 27.8442 14.3714 27.8826 14.5455 27.8826H33.369C33.927 27.8826 34.4209 27.5221 34.5909 26.9911L39.9385 10.3063C40.0639 9.91561 39.9951 9.48907 39.7536 9.15794ZM15.1874 37.5083C14.2436 37.5083 13.4762 36.7409 13.4762 35.7971C13.4762 34.8533 14.2436 34.0858 15.1874 34.0858C16.1311 34.0858 16.8986 34.8533 16.8986 35.7971C16.8986 36.7409 16.1311 37.5083 15.1874 37.5083ZM29.3049 37.5083C28.3611 37.5083 27.5936 36.7409 27.5936 35.7971C27.5936 34.8533 28.3611 34.0858 29.3049 34.0858C30.2486 34.0858 31.0161 34.8533 31.0161 35.7971C31.0161 36.7409 30.2486 37.5083 29.3049 37.5083ZM36.0324 14.0855H29.4832V11.1978H36.9578L36.0324 14.0855ZM34.1465 19.9678H29.4832V16.6523H35.2093L34.1465 19.9678ZM20.9981 19.9678V16.6523H26.9163V19.9678H20.9981ZM26.9163 22.5349V25.3157H20.9981V22.5349H26.9163ZM12.4532 16.6523H18.4315V19.9678H13.6035L12.4532 16.6523ZM20.9981 14.0855V11.1978H26.9163V14.0855H20.9981ZM18.4314 11.1978V14.0855H11.5624L10.5606 11.1978H18.4314ZM14.4942 22.5349H18.4314V25.3157H15.4589L14.4942 22.5349ZM29.4832 25.3157V22.535H33.3243L32.4332 25.3157H29.4832Z" fill="#32393D"/>
<circle cx="38" cy="11" r="10" fill="#F68B1E" stroke="white" stroke-width="2"/>
</svg>
